<svg width="1366" height="277" viewBox="0 0 1366 277" fill="none" xmlns="http://www.w3.org/2000/svg">
<path fill-rule="evenodd" clip-rule="evenodd" d="M1150.5 13V26H1153.5H1156.5V13V0H1153.5H1150.5V13ZM1122.14 2.62701C1117.82 3.32101 1114.12 4.04401 1113.93 4.23401C1113.6 4.56401 1117.34 29.178 1117.79 29.614C1117.9 29.729 1119.25 29.584 1120.77 29.292C1123.45 28.776 1123.52 28.609 1122.9 23.948L1122.26 19.136L1126.13 18.49C1132.13 17.489 1132.66 17.167 1132.32 14.754C1132.03 12.727 1131.45 12.5 1126.5 12.5C1121.68 12.5 1121 12.255 1121 10.514C1121 9.42098 1121.68 8.43902 1122.5 8.33002C1130.67 7.25702 1131.5 6.90398 1131.5 4.51398C1131.5 3.19598 1131.16 1.94903 1130.75 1.74103C1130.34 1.53403 1126.46 1.93301 1122.14 2.62701ZM1174.68 3.75C1174.95 6.048 1175.54 6.55198 1178.28 6.81598C1181.37 7.11298 1181.53 7.31898 1181.03 10.316C1180.14 15.641 1178.52 26.46 1178.51 27.137C1178.5 27.487 1179.84 27.97 1181.49 28.211C1184.8 28.697 1184.41 29.638 1186.49 16C1187.04 12.425 1187.49 9.22399 1187.49 8.88599C1187.5 8.54799 1189.19 8.32299 1191.25 8.38599C1194.4 8.48199 1195.05 8.14697 1195.31 6.28497C1195.67 3.80797 1195.39 3.70599 1183.81 2.03699C1174.14 0.642987 1174.32 0.609 1174.68 3.75ZM1236.5 16.362C1236.5 16.562 1235.38 22.249 1234 29C1232.62 35.751 1231.5 41.594 1231.5 41.985C1231.5 42.375 1232.51 43.167 1233.75 43.744C1235.75 44.677 1236.7 44.111 1242.25 38.676C1245.69 35.311 1248.48 33.22 1248.45 34.029C1248.42 34.838 1247.8 38.8 1247.08 42.833L1245.77 50.166L1248.28 51.311C1250.66 52.394 1251.28 51.946 1259.65 43.121C1264.52 37.986 1268.5 33.452 1268.5 33.045C1268.5 32.639 1267.49 31.827 1266.25 31.242C1264.23 30.287 1263.42 30.811 1258.34 36.339L1252.68 42.5L1254.09 35C1255.9 25.385 1255.9 25.494 1253.25 24.256C1251.26 23.328 1250.34 23.855 1245.25 28.822C1238.85 35.068 1238.41 34.665 1241 25C1242.87 18.026 1242.94 18.521 1239.95 17.161C1237.28 15.942 1236.5 15.762 1236.5 16.362ZM1276.51 54.734L1268.3 64.455L1274.65 70.194C1278.14 73.351 1281.55 75.948 1282.21 75.967C1282.88 75.985 1283.89 75.135 1284.46 74.079C1285.32 72.46 1284.78 71.539 1281.02 68.229C1277.03 64.719 1276.7 64.105 1277.9 62.465C1279.18 60.722 1279.45 60.791 1283.27 63.815C1287.93 67.508 1288.33 67.592 1290.11 65.25C1291.29 63.707 1290.95 63.07 1287.26 59.861C1283.61 56.69 1283.24 56.014 1284.42 54.599C1285.63 53.132 1286.19 53.327 1290.22 56.625C1294.64 60.245 1294.69 60.258 1296.62 58.32C1298.56 56.383 1298.53 56.327 1292.79 51.369C1289.6 48.619 1286.49 46.065 1285.86 45.692C1285.17 45.287 1281.41 48.922 1276.51 54.734ZM1303.31 80.215L1293.63 88.33L1298.26 94.227C1300.81 97.471 1303.18 100.303 1303.53 100.521C1303.89 100.738 1305.15 100.231 1306.35 99.392L1308.53 97.868L1305.08 93.659L1301.63 89.45L1309.51 83.113C1317.28 76.875 1317.37 76.739 1315.83 74.388C1314.97 73.075 1313.98 72.022 1313.64 72.05C1313.29 72.077 1308.64 75.752 1303.31 80.215ZM1323.32 106.846C1318 109.965 1313.36 112.811 1313 113.169C1312.14 114.027 1319.62 127.005 1320.96 126.985C1321.53 126.976 1322.68 126.539 1323.5 126.013C1324.8 125.186 1324.68 124.444 1322.6 120.511C1321.28 118.01 1320.38 115.808 1320.6 115.618C1320.82 115.428 1324.71 113.146 1329.25 110.548C1333.79 107.951 1337.49 105.527 1337.47 105.162C1337.41 103.971 1334.8 100.998 1333.89 101.087C1333.4 101.135 1328.65 103.726 1323.32 106.846ZM1338 136.933C1328.75 140.107 1327.05 141.011 1327.33 142.604C1327.95 146.109 1329.27 146.258 1336.92 143.687C1341.09 142.285 1344.5 141.357 1344.5 141.626C1344.5 141.895 1341.77 145.352 1338.43 149.308C1333.19 155.523 1332.45 156.903 1332.95 159.469C1333.27 161.102 1333.89 162.787 1334.31 163.214C1334.74 163.64 1340.55 162.164 1347.22 159.932L1359.35 155.874L1358.36 153.02L1357.36 150.166L1350.26 152.583C1346.35 153.912 1342.73 155 1342.23 155C1341.72 155 1343.5 152.413 1346.18 149.25C1354.15 139.844 1353.82 140.5 1352.51 136.539C1351.87 134.592 1350.82 133.035 1350.17 133.079C1349.53 133.122 1344.05 134.856 1338 136.933ZM584.5 160.066C584.5 161.729 585.035 162.071 587.241 161.816C588.895 161.626 590.115 160.805 590.315 159.75C590.573 158.391 589.96 158 587.573 158C585.134 158 584.5 158.426 584.5 160.066ZM34.5 163.035C20.689 165.488 10.463 172.865 5.787 183.75C3.663 188.694 3.62 202.208 5.713 207.073C7.813 211.954 12.943 217.595 17.887 220.459C20.149 221.77 26.575 224.425 32.168 226.359C49.994 232.524 54.387 235.733 55.204 243.188C55.575 246.577 55.175 248.237 53.335 250.946C49.519 256.562 45.18 258.503 36.5 258.48C28.105 258.458 24.291 256.966 18.5 251.439L15 248.099L7.5 255.046L0 261.994L4.25999 265.891C20.429 280.686 51.831 280.669 66.644 265.856C72.961 259.539 75.881 252.158 75.883 242.5C75.888 225.336 68.463 217.57 44.256 209.418C28.869 204.236 24.493 200.64 24.504 193.185C24.509 189.532 27.794 184.416 31.299 182.604C39.121 178.559 52.244 180.156 58.394 185.901L61.508 188.81L68.559 181.158L75.609 173.507L73.314 171.648C64.136 164.217 48.003 160.636 34.5 163.035ZM729.543 163.074C717.367 165.236 707.554 172.117 702.78 181.839C700.384 186.718 700.006 188.674 700.046 196C700.082 202.673 700.548 205.36 702.211 208.5C706.841 217.237 714.839 222.382 733.199 228.429C743.333 231.768 747.475 234.456 749.806 239.208C754.934 249.662 744.189 260.161 729.863 258.694C723.607 258.053 719.204 255.934 714.231 251.168L710.461 247.556L703.267 254.75L696.073 261.945L699.005 265.006C706.581 272.913 717.078 276.499 732.5 276.448C747.624 276.398 753.403 274.276 762.079 265.588C769.277 258.379 771.5 252.975 771.5 242.688C771.5 233.253 769.931 228.696 764.669 222.843C759.527 217.124 754.857 214.545 740.745 209.633C735.162 207.69 729.263 205.412 727.636 204.57C718.628 199.912 717.96 188.976 726.338 183.33C733.578 178.451 746.768 179.537 753.435 185.56L757.174 188.938L764.258 181.131L771.342 173.324L765.774 169.657C762.712 167.64 757.91 165.301 755.103 164.459C748.537 162.489 736.506 161.837 729.543 163.074ZM573.5 166.028V169.056L587.25 168.778L601 168.5L601.316 165.75L601.633 163H587.566H573.5V166.028ZM125.5 214.25C113.737 241.337 103.074 265.877 101.805 268.783L99.496 274.066L110.713 273.783L121.929 273.5L126.583 261.5L131.237 249.5L154.66 249.232L178.083 248.965L183.11 261.232L188.137 273.5L199.438 273.784C209.934 274.048 210.691 273.941 210.056 272.284C209.68 271.303 199.164 246.764 186.686 217.754L164 165.007L155.444 165.004L146.888 165L125.5 214.25ZM238.5 219.5V274H248H257.5V251.5V229H281.5H305.5V220V211H281.5H257.5V197V183H283H308.5V174V165H273.5H238.5V219.5ZM353.376 219.524L329.752 274H340.885H352.018L356.861 261.5L361.704 249H384.991H408.278L413.319 261.25L418.359 273.5L429.429 273.783C435.518 273.938 440.502 273.713 440.504 273.283C440.506 272.852 430.096 248.313 417.369 218.75L394.23 165L385.615 165.024L377 165.048L353.376 219.524ZM468.5 219.414V274H478.5H488.5V251V228H495.323H502.146L514.601 250.75L527.055 273.5L538.897 273.783C548.212 274.005 550.633 273.792 550.24 272.783C549.965 272.077 543.646 261.375 536.198 249L522.655 226.5L528.003 224.691C534.721 222.42 541.565 216.467 544.585 210.27C547.954 203.359 547.992 189.539 544.661 182.761C541.548 176.426 534.745 170.638 527.191 167.899C521.506 165.837 518.855 165.62 494.75 165.241L468.5 164.828V219.414ZM807.5 219.5V274H816.982H826.464L826.732 250.25L827 226.5L852.25 226.233L877.5 225.966V249.983V274H887.5H897.5V219.5V165H887.5H877.5V186.5V208H852H826.5V186.5V165H817H807.5V219.5ZM950.5 214.25C938.737 241.337 928.074 265.877 926.805 268.783L924.496 274.066L935.713 273.783L946.929 273.5L951.583 261.5L956.237 249.5L979.66 249.232L1003.08 248.965L1008.11 261.232L1013.14 273.5L1024.44 273.784C1034.93 274.048 1035.69 273.941 1035.06 272.284C1034.68 271.303 1024.16 246.764 1011.69 217.754L989 165.007L980.444 165.004L971.888 165L950.5 214.25ZM1063.5 219.412V274H1073H1082.5V251.5V229L1095.25 228.983C1127.38 228.939 1139.84 219.865 1139.96 196.429C1139.99 189.38 1139.62 187.614 1136.99 182.472C1133.51 175.668 1128.29 171.246 1119.78 167.884C1114.42 165.765 1112.18 165.572 1088.75 165.212L1063.5 164.823V219.412ZM1172.5 219.5V274H1210H1247.5V265V256H1220H1192.5V241.5V227H1217.5H1242.5V218V209H1217.5H1192.5V196V183H1219H1245.5V174V165H1209H1172.5V219.5ZM569.5 173V176H587.5H605.5V173V170H587.5H569.5V173ZM564.687 180.25L565 183.5L575 183.782L585 184.063L584.723 216.532L584.446 249H587.5H590.554L590.277 216.532L590 184.063L600 183.782L610 183.5L610.313 180.25L610.627 177H587.5H564.373L564.687 180.25ZM1351 178.618C1344.95 179.384 1339.52 180.187 1338.94 180.401C1337.35 180.985 1339.61 198.532 1341.25 198.4C1345.88 198.03 1345.73 198.273 1345.02 192.138C1344.44 187.184 1344.59 186.178 1346.01 185.635C1348.52 184.672 1349.5 185.752 1349.5 189.477C1349.5 194.414 1350.41 196 1353.25 196C1355.76 196 1355.78 195.927 1355.15 189.932C1354.54 184.061 1354.59 183.873 1356.76 184.182C1358.3 184.401 1359.08 185.276 1359.27 187C1360.15 195.178 1360.42 195.739 1363.13 195.219C1365.72 194.725 1365.73 194.687 1365.06 187.611C1364.32 179.701 1363.7 176.945 1362.68 177.112C1362.31 177.174 1357.05 177.851 1351 178.618ZM516.127 183.482C523.7 185.731 526 188.758 526 196.476C526 201.384 525.555 203.281 524.002 204.997C519.904 209.526 516.714 210.379 502.25 210.814L488.5 211.227V196.613V182H499.818C506.906 182 513.002 182.554 516.127 183.482ZM1111.66 184.832C1122 189.844 1122.2 204.156 1112 209.431C1108.71 211.131 1105.73 211.563 1095.25 211.85L1082.5 212.201V196.98V181.759L1094.75 182.168C1104.87 182.506 1107.81 182.969 1111.66 184.832ZM163.165 210.829C167.199 221.46 170.5 230.573 170.5 231.079C170.5 231.602 163.54 232 154.393 232C139.459 232 138.336 231.873 138.971 230.25C139.348 229.288 143.088 219.551 147.283 208.613C151.477 197.674 155.116 189.349 155.369 190.113C155.622 190.876 159.13 200.198 163.165 210.829ZM393.883 212L401.252 231.5L393.425 231.79C389.12 231.949 381.809 231.949 377.179 231.79L368.759 231.5L376.88 210.253C382.631 195.203 385.221 189.515 385.757 190.753C386.173 191.714 389.83 201.275 393.883 212ZM988.165 210.829C992.199 221.46 995.5 230.573 995.5 231.079C995.5 231.602 988.54 232 979.393 232C964.459 232 963.336 231.873 963.971 230.25C964.348 229.288 968.088 219.551 972.283 208.613C976.477 197.674 980.116 189.349 980.369 190.113C980.622 190.876 984.13 200.198 988.165 210.829ZM1341.08 215.849C1336.35 224.999 1342.48 234.631 1350.96 231.375C1351.86 231.032 1353.72 228.527 1355.1 225.809C1358.04 220.009 1360 220.005 1360 225.8C1360 228.215 1360.65 230.568 1361.59 231.505C1363.04 232.965 1363.29 232.956 1364.59 231.396C1365.42 230.389 1366 227.472 1366 224.258C1366 217.572 1363.35 214.716 1357.58 215.2C1354.4 215.467 1353.69 216.08 1351.19 220.75C1349.64 223.638 1347.78 226 1347.05 226C1345.11 226 1344.53 222.493 1346.01 219.644C1347.16 217.431 1347.05 216.921 1344.98 214.979L1342.66 212.798L1341.08 215.849ZM1338.28 247.75C1334.25 252.37 1333.28 258.818 1336.03 262.738C1336.87 263.938 1339.14 265.217 1341.07 265.579C1344.99 266.314 1347.61 264.632 1350.13 259.752C1351.93 256.275 1355.5 255.974 1355.5 259.3C1355.5 260.565 1354.97 262.128 1354.33 262.773C1353 264.103 1354.67 269 1356.46 269C1358.14 269 1360.65 264.294 1361.21 260.086C1361.68 256.608 1361.36 255.705 1358.7 253.048C1353.84 248.181 1352 248.82 1344.07 258.142C1343.17 259.204 1341.99 259.805 1341.46 259.477C1339.97 258.554 1340.33 254.316 1342.04 252.601C1343.43 251.211 1343.42 250.808 1341.93 248.529C1339.96 245.521 1340.18 245.57 1338.28 247.75ZM564.891 251.422C564.583 252.226 564.488 253.697 564.679 254.692C565.003 256.372 566.617 256.5 587.514 256.5H610V253.5V250.5L587.726 250.231C568.942 250.004 565.364 250.19 564.891 251.422ZM569.5 261V264H587.5H605.5V261V258H587.5H569.5V261ZM573.5 268V271.056L587.25 270.778L601 270.5V268V265.5L587.25 265.222L573.5 264.944V268ZM584.5 274C584.5 275.556 585.167 276 587.5 276C589.833 276 590.5 275.556 590.5 274C590.5 272.444 589.833 272 587.5 272C585.167 272 584.5 272.444 584.5 274Z" fill="#FF4D00"/>
</svg>
